<?xml version="1.0" standalone="no"?>
<!DOCTYPE svg PUBLIC "-//W3C//DTD SVG 20010904//EN"
 "http://www.w3.org/TR/2001/REC-SVG-20010904/DTD/svg10.dtd">
<svg version="1.0" xmlns="http://www.w3.org/2000/svg"
 width="260.000000pt" height="260.000000pt" viewBox="0 0 260.000000 260.000000"
 preserveAspectRatio="xMidYMid meet">
<metadata>
Created by potrace 1.14, written by Peter Selinger 2001-2017
</metadata>
<g transform="translate(0.000000,260.000000) scale(0.100000,-0.100000)"
fill="#000000" stroke="none">
<path d="M799 2506 c-1 -1 -3 -146 -3 -323 -1 -177 -5 -325 -8 -328 -3 -4
-148 -7 -322 -7 l-316 0 -1 -51 c-1 -84 2 -202 6 -205 8 -9 215 -6 215 3 0 7
3 7 8 0 4 -6 60 -10 132 -10 l124 0 1 -117 1 -117 -83 2 c-50 1 -83 -2 -84 -8
-1 -5 -2 -113 -4 -240 -1 -126 -3 -235 -4 -241 -1 -13 -129 -13 -149 0 -7 4
-12 4 -11 -1 1 -4 1 -10 -1 -13 -6 -16 -4 -183 3 -187 4 -2 3 -12 -1 -21 -5
-9 -8 -39 -6 -67 l2 -50 -74 1 -74 1 0 -51 c-1 -58 -1 -346 0 -361 0 -6 49
-10 130 -9 73 1 130 -3 130 -8 0 -5 6 -3 13 4 9 8 11 24 7 50 -4 21 -5 38 -1
38 7 0 5 144 -1 157 -3 4 -1 26 4 49 l8 40 53 -1 c67 -2 76 1 73 30 -2 15 3
25 14 28 13 3 16 12 11 38 l-5 34 -6 -35 -6 -35 -5 38 c-3 25 -1 37 7 37 7 0
16 5 20 12 5 8 2 9 -9 5 -15 -6 -17 3 -17 73 0 72 2 80 23 91 22 13 137 19
137 8 0 -3 7 -6 15 -6 9 0 14 5 12 11 -2 6 0 21 4 34 5 12 5 22 1 22 -4 0 -7
18 -7 40 0 22 3 40 6 40 4 0 4 15 -1 33 -4 18 -3 43 1 55 5 12 5 23 1 26 -9 6
-8 48 1 63 4 7 4 14 0 16 -7 4 -7 87 -1 155 1 9 10 12 25 9 13 -2 26 -1 29 4
2 4 10 6 17 4 7 -3 29 -6 50 -8 29 -3 37 -1 33 9 -3 7 -2 15 2 18 9 5 8 48 -1
62 -3 6 -4 24 0 40 3 16 5 38 4 49 0 11 -2 39 -4 63 -2 23 1 42 5 42 5 0 4 9
-2 20 -8 14 -8 20 0 20 6 0 8 5 4 12 -5 7 -3 8 7 3 19 -12 73 -12 81 0 5 6 8
7 8 0 0 -11 340 -12 359 -1 6 4 11 3 11 -2 0 -5 12 -9 28 -8 l27 1 3 -442 c2
-417 1 -443 -15 -444 -10 -1 -40 -3 -68 -4 -27 -1 -56 -3 -62 -4 -10 -1 -12
-40 -10 -165 2 -150 0 -165 -15 -170 -10 -2 -18 1 -18 7 0 8 -3 8 -8 2 -9 -14
-65 -14 -74 0 -5 7 -8 7 -8 0 0 -14 -70 -14 -70 0 0 7 -3 7 -8 0 -9 -14 -65
-14 -74 0 -5 7 -8 7 -8 -1 0 -12 -79 -12 -97 -1 -7 5 -13 4 -13 0 0 -10 -41
-10 -58 1 -7 4 -12 3 -12 -3 0 -9 -31 -8 -48 3 -4 2 -14 1 -22 -4 -8 -5 -21
-5 -30 0 -9 5 -22 5 -30 0 -9 -5 -20 -4 -29 3 -12 10 -13 9 -6 -3 8 -13 7 -13
-8 -1 -9 7 -18 10 -18 5 -4 -30 -3 -246 1 -252 6 -8 769 -10 771 -2 1 3 2 41
3 85 l1 80 80 -1 c44 -1 82 2 85 6 3 5 5 73 4 152 -1 78 2 150 7 158 5 12 22
16 63 15 l56 -1 0 539 0 539 -27 -2 c-16 -1 -32 -1 -38 0 -5 1 -21 3 -35 3
-24 2 -25 4 -25 82 l-1 80 -243 2 c-134 1 -246 4 -249 8 -3 3 -6 149 -6 325 0
176 -2 321 -5 321 -6 1 -280 6 -282 5z"/>
<path d="M1625 2179 c-10 -15 -12 -109 -3 -109 4 0 3 -12 -3 -27 -7 -19 -7
-29 0 -31 6 -2 7 -12 1 -28 -7 -16 -6 -24 1 -24 8 0 8 -4 1 -13 -20 -23 2 -34
63 -32 33 1 65 0 72 -2 8 -3 11 -30 10 -84 -3 -90 -15 -80 106 -81 33 -1 58
-6 58 -12 1 -6 3 -72 4 -146 4 -196 2 -185 20 -170 8 7 15 8 15 3 0 -9 74 -8
90 2 6 3 10 1 10 -5 0 -6 4 -9 9 -6 15 10 17 -13 16 -161 0 -79 3 -143 8 -143
4 0 5 -5 1 -12 -5 -8 0 -9 17 -4 24 8 87 10 125 5 19 -3 21 -9 19 -69 -3 -79
4 -118 16 -98 7 11 9 11 9 -1 0 -9 4 -10 13 -4 6 5 58 8 115 7 56 -1 103 1
103 5 7 34 3 234 -5 238 -5 4 -37 7 -70 7 -52 1 -61 4 -60 19 1 9 -1 17 -5 17
-3 0 -6 66 -6 147 l0 147 -65 -3 c-48 -1 -70 2 -85 14 -11 9 -14 13 -6 9 10
-5 11 -1 6 16 -12 38 -13 55 -2 68 5 6 5 12 0 12 -5 0 -9 9 -10 20 -1 11 2 18
8 15 5 -4 6 3 1 17 -10 27 -9 39 1 56 5 6 4 12 0 12 -5 0 -9 9 -10 20 -1 11 2
18 8 15 5 -4 6 3 0 17 -4 13 -6 28 -4 35 3 8 -16 11 -65 11 -99 -1 -105 4
-103 91 l1 72 -52 -2 c-105 -3 -105 -2 -106 34 -1 141 -1 140 -22 134 -11 -3
-20 0 -20 6 0 8 -4 7 -9 -2 -6 -9 -11 -10 -15 -2 -4 6 -12 8 -18 5 -16 -10
-158 -11 -158 -2 0 12 -18 10 -25 -3z"/>
<path d="M583 670 c0 -41 2 -58 4 -37 2 20 2 54 0 75 -2 20 -4 3 -4 -38z"/>
<path d="M580 470 c0 -5 5 -10 11 -10 5 0 7 5 4 10 -3 6 -8 10 -11 10 -2 0 -4
-4 -4 -10z"/>
</g>
</svg>
